# xmcd
#
# Track frame offsets: 
#        150
#        89752
#        188090
#        231690
#        293832
#
# Disc length: 4484 seconds
#
# Revision: 2
# Processed by: cddbd v1.5.2PL0 Copyright (c) Steve Scherf et al.
# Submitted via: ExactAudioCopy v0.99pb4
#
DISCID=49118205
DTITLE=Philharmonia Orchestra, New Philharmonia Orchestra and Otto Klemp
DTITLE=erer - Bruckner Symphony No.7 and Others
DYEAR=2000
DGENRE=Classical
TTITLE0=Bruckner Symphonie Nr.7 in E-dur (Originalfassung) - I. Allegr
TTITLE0=o moderato
TTITLE1=Bruckner Symphonie Nr.7 in E-dur (Originalfassung) - II. Adagi
TTITLE1=o (Sehr feierlich und sehr langsam)
TTITLE2=Bruckner Symphonie Nr.7 in E-dur (Originalfassung) - III. Sche
TTITLE2=rzo (Sehr schnell)
TTITLE3=Bruckner Symphonie Nr.7 in E-dur (Originalfassung) - IV. Final
TTITLE3=e (Bewegt, doch nicht schnell)
TTITLE4=Jean-Philippe Rameau - Gavotte with Six Variations
EXTD=
EXTT0=
EXTT1=
EXTT2=
EXTT3=
EXTT4=
PLAYORDER=
